<?xml version="1.0" encoding="utf-8"?>
<svg xmlns="http://www.w3.org/2000/svg" viewBox="0 0 165.9 165.9">
    <defs>
        <linearGradient id="grad1" x1="0%" y1="0%" x2="0%" y2="100%">
            <stop offset="0%" style="stop-color: rgba(0, 0, 0, 0.7);" />
            <stop offset="50%" style="stop-color: rgb(0, 0, 0);" />
            <stop offset="100%" style="stop-color: rgba(0, 0, 0, 0.7);" />
        </linearGradient>
        <filter id="boxShadow" x="0%" y="0%" width="140%" height="140%">
            <feDropShadow dx="5" dy="5" stdDeviation="3" flood-color="rgba(0,0,0,0.5)" />
        </filter>
        <style>
            .cls-1 {
            fill: url(#grad1);
            filter: url(#boxShadow);
            }
        </style>
    </defs>
    <!-- Beyaz arka plan -->
    <rect class="cls-1" width="165.9" height="165.9" rx="14.17" ry="14.17" />
    <g transform="translate(2,8) scale(0.326632)">
        <path stroke="#066da5" stroke-width="38"
            d="M296 226h42m-92 0h42m-91 0h42m-91 0h41m-91 0h42m8-46h41m8 0h42m7 0h42m-42-46h42" />
        <path fill="#066da5"
            d="m472 228s-18-17-55-11c-4-29-35-46-35-46s-29 35-8 74c-6 3-16 7-31 7H68c-5 19-5 145 133 145 99 0 173-46 208-130 52 4 63-39 63-39" />
    </g>
</svg>